<svg class="main-svg" xmlns="http://www.w3.org/2000/svg" xmlns:xlink="http://www.w3.org/1999/xlink" width="700" height="500" style="" viewBox="0 0 700 500"><rect x="0" y="0" width="700" height="500" style="fill: rgb(255, 255, 255); fill-opacity: 1;"/><defs id="defs-c82477"><g class="clips"><clipPath id="clipc82477xyplot" class="plotclip"><rect width="498" height="393"/></clipPath><clipPath class="axesclip" id="clipc82477x"><rect x="85" y="0" width="498" height="500"/></clipPath><clipPath class="axesclip" id="clipc82477y"><rect x="0" y="50" width="700" height="393"/></clipPath><clipPath class="axesclip" id="clipc82477xy"><rect x="85" y="50" width="498" height="393"/></clipPath></g><g class="gradients"/></defs><g class="bglayer"><rect class="bg" x="85" y="50" width="498" height="393" style="fill: rgb(234, 234, 242); fill-opacity: 1; stroke-width: 0;"/></g><g class="layer-below"><g class="imagelayer"/><g class="shapelayer"/></g><g class="cartesianlayer"><g class="subplot xy"><g class="layer-subplot"><g class="shapelayer"/><g class="imagelayer"/></g><g class="gridlayer"><g class="x"/><g class="y"/></g><g class="zerolinelayer"/><path class="xlines-below"/><path class="ylines-below"/><g class="overlines-below"/><g class="xaxislayer-below"/><g class="yaxislayer-below"/><g class="overaxes-below"/><g class="plot" transform="translate(85, 50)" clip-path="url('#clipc82477xyplot')"><g class="scatterlayer mlayer"><g class="trace scatter trace7ceaf7" style="stroke-miterlimit: 2; opacity: 1;"><g class="fills"/><g class="errorbars"/><g class="lines"><path class="js-line" d="M29.9,125.92L41.14,211.87L52.37,244.83L63.61,259.17L74.84,271L97.32,277.45L108.55,276.42L119.79,297.97L131.02,299.41L142.26,311.03L153.49,309.66L164.73,313.23L175.97,321.81L187.2,314.84L198.44,327.76L209.67,329.29L220.91,328.4L232.15,319.13L243.38,334.7" style="vector-effect: non-scaling-stroke; fill: none; stroke: rgb(76, 114, 176); stroke-opacity: 1; stroke-width: 2px; opacity: 1;"/></g><g class="points"><path class="point" transform="translate(29.9,125.92)" d="M4,0A4,4 0 1,1 0,-4A4,4 0 0,1 4,0Z" style="opacity: 1; stroke-width: 0px; fill: rgb(76, 114, 176); fill-opacity: 1;"/><path class="point" transform="translate(52.37,244.83)" d="M4,0A4,4 0 1,1 0,-4A4,4 0 0,1 4,0Z" style="opacity: 1; stroke-width: 0px; fill: rgb(76, 114, 176); fill-opacity: 1;"/><path class="point" transform="translate(74.84,271)" d="M4,0A4,4 0 1,1 0,-4A4,4 0 0,1 4,0Z" style="opacity: 1; stroke-width: 0px; fill: rgb(76, 114, 176); fill-opacity: 1;"/><path class="point" transform="translate(97.32,277.45)" d="M4,0A4,4 0 1,1 0,-4A4,4 0 0,1 4,0Z" style="opacity: 1; stroke-width: 0px; fill: rgb(76, 114, 176); fill-opacity: 1;"/><path class="point" transform="translate(119.79,297.97)" d="M4,0A4,4 0 1,1 0,-4A4,4 0 0,1 4,0Z" style="opacity: 1; stroke-width: 0px; fill: rgb(76, 114, 176); fill-opacity: 1;"/><path class="point" transform="translate(142.26,311.03)" d="M4,0A4,4 0 1,1 0,-4A4,4 0 0,1 4,0Z" style="opacity: 1; stroke-width: 0px; fill: rgb(76, 114, 176); fill-opacity: 1;"/><path class="point" transform="translate(164.73,313.23)" d="M4,0A4,4 0 1,1 0,-4A4,4 0 0,1 4,0Z" style="opacity: 1; stroke-width: 0px; fill: rgb(76, 114, 176); fill-opacity: 1;"/><path class="point" transform="translate(187.2,314.84)" d="M4,0A4,4 0 1,1 0,-4A4,4 0 0,1 4,0Z" style="opacity: 1; stroke-width: 0px; fill: rgb(76, 114, 176); fill-opacity: 1;"/><path class="point" transform="translate(209.67,329.29)" d="M4,0A4,4 0 1,1 0,-4A4,4 0 0,1 4,0Z" style="opacity: 1; stroke-width: 0px; fill: rgb(76, 114, 176); fill-opacity: 1;"/><path class="point" transform="translate(232.15,319.13)" d="M4,0A4,4 0 1,1 0,-4A4,4 0 0,1 4,0Z" style="opacity: 1; stroke-width: 0px; fill: rgb(76, 114, 176); fill-opacity: 1;"/></g><g class="text"/></g><g class="trace scatter trace8402fa" style="stroke-miterlimit: 2; opacity: 1;"><g class="fills"/><g class="errorbars"/><g class="lines"><path class="js-line" d="M29.9,167.09L41.14,215.96L52.37,242.61L63.61,258.03L74.84,268.27L86.08,278.57L97.32,279.32L108.55,286.29L119.79,291.96L131.02,300.32L142.26,299.63L153.49,306.39L164.73,305.41L175.97,309.3L187.2,309.99L198.44,318.74L209.67,309.38L220.91,325.54L232.15,313.67L243.38,328.6" style="vector-effect: non-scaling-stroke; fill: none; stroke: rgb(221, 132, 82); stroke-opacity: 1; stroke-width: 2px; opacity: 1;"/></g><g class="points"><path class="point" transform="translate(41.14,215.96)" d="M4,4H-4V-4H4Z" style="opacity: 1; stroke-width: 0px; fill: rgb(221, 132, 82); fill-opacity: 1;"/><path class="point" transform="translate(63.61,258.03)" d="M4,4H-4V-4H4Z" style="opacity: 1; stroke-width: 0px; fill: rgb(221, 132, 82); fill-opacity: 1;"/><path class="point" transform="translate(86.08,278.57)" d="M4,4H-4V-4H4Z" style="opacity: 1; stroke-width: 0px; fill: rgb(221, 132, 82); fill-opacity: 1;"/><path class="point" transform="translate(108.55,286.29)" d="M4,4H-4V-4H4Z" style="opacity: 1; stroke-width: 0px; fill: rgb(221, 132, 82); fill-opacity: 1;"/><path class="point" transform="translate(131.02,300.32)" d="M4,4H-4V-4H4Z" style="opacity: 1; stroke-width: 0px; fill: rgb(221, 132, 82); fill-opacity: 1;"/><path class="point" transform="translate(153.49,306.39)" d="M4,4H-4V-4H4Z" style="opacity: 1; stroke-width: 0px; fill: rgb(221, 132, 82); fill-opacity: 1;"/><path class="point" transform="translate(175.97,309.3)" d="M4,4H-4V-4H4Z" style="opacity: 1; stroke-width: 0px; fill: rgb(221, 132, 82); fill-opacity: 1;"/><path class="point" transform="translate(198.44,318.74)" d="M4,4H-4V-4H4Z" style="opacity: 1; stroke-width: 0px; fill: rgb(221, 132, 82); fill-opacity: 1;"/><path class="point" transform="translate(220.91,325.54)" d="M4,4H-4V-4H4Z" style="opacity: 1; stroke-width: 0px; fill: rgb(221, 132, 82); fill-opacity: 1;"/><path class="point" transform="translate(243.38,328.6)" d="M4,4H-4V-4H4Z" style="opacity: 1; stroke-width: 0px; fill: rgb(221, 132, 82); fill-opacity: 1;"/></g><g class="text"/></g><g class="trace scatter trace5edfae" style="stroke-miterlimit: 2; opacity: 1;"><g class="fills"/><g class="errorbars"/><g class="lines"><path class="js-line" d="M29.9,105.04L41.14,188.37L52.37,224.08L63.61,248.37L74.84,262.49L86.08,269.75L97.32,271.63L108.55,259.15L119.79,287.23L131.02,293.45L142.26,297.25L164.73,305.69L175.97,306.17L220.91,319.46L232.15,314.35L243.38,326.8" style="vector-effect: non-scaling-stroke; fill: none; stroke: rgb(85, 168, 104); stroke-opacity: 1; stroke-width: 2px; opacity: 1;"/></g><g class="points"><path class="point" transform="translate(41.14,188.37)" d="M5.2,0L0,5.2L-5.2,0L0,-5.2Z" style="opacity: 1; stroke-width: 0px; fill: rgb(85, 168, 104); fill-opacity: 1;"/><path class="point" transform="translate(63.61,248.37)" d="M5.2,0L0,5.2L-5.2,0L0,-5.2Z" style="opacity: 1; stroke-width: 0px; fill: rgb(85, 168, 104); fill-opacity: 1;"/><path class="point" transform="translate(86.08,269.75)" d="M5.2,0L0,5.2L-5.2,0L0,-5.2Z" style="opacity: 1; stroke-width: 0px; fill: rgb(85, 168, 104); fill-opacity: 1;"/><path class="point" transform="translate(108.55,259.15)" d="M5.2,0L0,5.2L-5.2,0L0,-5.2Z" style="opacity: 1; stroke-width: 0px; fill: rgb(85, 168, 104); fill-opacity: 1;"/><path class="point" transform="translate(131.02,293.45)" d="M5.2,0L0,5.2L-5.2,0L0,-5.2Z" style="opacity: 1; stroke-width: 0px; fill: rgb(85, 168, 104); fill-opacity: 1;"/><path class="point" transform="translate(153.49,301.72)" d="M5.2,0L0,5.2L-5.2,0L0,-5.2Z" style="opacity: 1; stroke-width: 0px; fill: rgb(85, 168, 104); fill-opacity: 1;"/><path class="point" transform="translate(175.97,306.17)" d="M5.2,0L0,5.2L-5.2,0L0,-5.2Z" style="opacity: 1; stroke-width: 0px; fill: rgb(85, 168, 104); fill-opacity: 1;"/><path class="point" transform="translate(198.44,313.19)" d="M5.2,0L0,5.2L-5.2,0L0,-5.2Z" style="opacity: 1; stroke-width: 0px; fill: rgb(85, 168, 104); fill-opacity: 1;"/><path class="point" transform="translate(220.91,319.46)" d="M5.2,0L0,5.2L-5.2,0L0,-5.2Z" style="opacity: 1; stroke-width: 0px; fill: rgb(85, 168, 104); fill-opacity: 1;"/><path class="point" transform="translate(243.38,326.8)" d="M5.2,0L0,5.2L-5.2,0L0,-5.2Z" style="opacity: 1; stroke-width: 0px; fill: rgb(85, 168, 104); fill-opacity: 1;"/></g><g class="text"/></g><g class="trace scatter trace8f6c6c" style="stroke-miterlimit: 2; opacity: 1;"><g class="fills"/><g class="errorbars"/><g class="lines"><path class="js-line" d="M29.9,121.01L41.14,196.25L52.37,232.09L63.61,249.38L74.84,264.5L86.08,270.09L97.32,287.19L108.55,284.69L119.79,296.76L131.02,302.82L142.26,312.47L153.49,313.89L164.73,316.73L175.97,317.48L187.2,323.29L198.44,321.75L209.67,325.7L220.91,340.23L232.15,330.47L243.38,339.23" style="vector-effect: non-scaling-stroke; fill: none; stroke: rgb(196, 78, 82); stroke-opacity: 1; stroke-width: 2px; opacity: 1;"/></g><g class="points"><path class="point" transform="translate(29.9,121.01)" d="M4.8,1.6H1.6V4.8H-1.6V1.6H-4.8V-1.6H-1.6V-4.8H1.6V-1.6H4.8Z" style="opacity: 1; stroke-width: 0px; fill: rgb(196, 78, 82); fill-opacity: 1;"/><path class="point" transform="translate(52.37,232.09)" d="M4.8,1.6H1.6V4.8H-1.6V1.6H-4.8V-1.6H-1.6V-4.8H1.6V-1.6H4.8Z" style="opacity: 1; stroke-width: 0px; fill: rgb(196, 78, 82); fill-opacity: 1;"/><path class="point" transform="translate(74.84,264.5)" d="M4.8,1.6H1.6V4.8H-1.6V1.6H-4.8V-1.6H-1.6V-4.8H1.6V-1.6H4.8Z" style="opacity: 1; stroke-width: 0px; fill: rgb(196, 78, 82); fill-opacity: 1;"/><path class="point" transform="translate(97.32,287.19)" d="M4.8,1.6H1.6V4.8H-1.6V1.6H-4.8V-1.6H-1.6V-4.8H1.6V-1.6H4.8Z" style="opacity: 1; stroke-width: 0px; fill: rgb(196, 78, 82); fill-opacity: 1;"/><path class="point" transform="translate(119.79,296.76)" d="M4.8,1.6H1.6V4.8H-1.6V1.6H-4.8V-1.6H-1.6V-4.8H1.6V-1.6H4.8Z" style="opacity: 1; stroke-width: 0px; fill: rgb(196, 78, 82); fill-opacity: 1;"/><path class="point" transform="translate(142.26,312.47)" d="M4.8,1.6H1.6V4.8H-1.6V1.6H-4.8V-1.6H-1.6V-4.8H1.6V-1.6H4.8Z" style="opacity: 1; stroke-width: 0px; fill: rgb(196, 78, 82); fill-opacity: 1;"/><path class="point" transform="translate(164.73,316.73)" d="M4.8,1.6H1.6V4.8H-1.6V1.6H-4.8V-1.6H-1.6V-4.8H1.6V-1.6H4.8Z" style="opacity: 1; stroke-width: 0px; fill: rgb(196, 78, 82); fill-opacity: 1;"/><path class="point" transform="translate(187.2,323.29)" d="M4.8,1.6H1.6V4.8H-1.6V1.6H-4.8V-1.6H-1.6V-4.8H1.6V-1.6H4.8Z" style="opacity: 1; stroke-width: 0px; fill: rgb(196, 78, 82); fill-opacity: 1;"/><path class="point" transform="translate(209.67,325.7)" d="M4.8,1.6H1.6V4.8H-1.6V1.6H-4.8V-1.6H-1.6V-4.8H1.6V-1.6H4.8Z" style="opacity: 1; stroke-width: 0px; fill: rgb(196, 78, 82); fill-opacity: 1;"/><path class="point" transform="translate(232.15,330.47)" d="M4.8,1.6H1.6V4.8H-1.6V1.6H-4.8V-1.6H-1.6V-4.8H1.6V-1.6H4.8Z" style="opacity: 1; stroke-width: 0px; fill: rgb(196, 78, 82); fill-opacity: 1;"/></g><g class="text"/></g><g class="trace scatter trace7848a2" style="stroke-miterlimit: 2; opacity: 1;"><g class="fills"/><g class="errorbars"/><g class="lines"><path class="js-line" d="M29.9,61.34L41.14,180.51L52.37,214.18L63.61,244.87L74.84,262.28L86.08,273.21L97.32,276.96L108.55,289.53L119.79,299.27L131.02,306.2L142.26,310.34L153.49,310.55L164.73,318.49L175.97,317.69L187.2,323.72L209.67,333.41L220.91,341.45L232.15,339.63L243.38,341.64L254.62,344.99L265.85,346.15L277.09,341.97L288.33,345.54L299.56,353.74L310.8,348.23L322.03,346.03L333.27,358.04L344.51,349.97L355.74,354.33L366.98,358.31L378.21,356.78L389.45,356.98L400.68,341.24L411.92,361.23L423.16,358.69L434.39,364.52L445.63,362.05L456.86,368.35L468.1,365.45" style="vector-effect: non-scaling-stroke; fill: none; stroke: rgb(129, 114, 179); stroke-opacity: 1; stroke-width: 2px; opacity: 1;"/></g><g class="points"><path class="point" transform="translate(52.37,214.18)" d="M0,2.26l2.26,2.26l2.26,-2.26l-2.26,-2.26l2.26,-2.26l-2.26,-2.26l-2.26,2.26l-2.26,-2.26l-2.26,2.26l2.26,2.26l-2.26,2.26l2.26,2.26Z" style="opacity: 1; stroke-width: 0px; fill: rgb(129, 114, 179); fill-opacity: 1;"/><path class="point" transform="translate(97.32,276.96)" d="M0,2.26l2.26,2.26l2.26,-2.26l-2.26,-2.26l2.26,-2.26l-2.26,-2.26l-2.26,2.26l-2.26,-2.26l-2.26,2.26l2.26,2.26l-2.26,2.26l2.26,2.26Z" style="opacity: 1; stroke-width: 0px; fill: rgb(129, 114, 179); fill-opacity: 1;"/><path class="point" transform="translate(142.26,310.34)" d="M0,2.26l2.26,2.26l2.26,-2.26l-2.26,-2.26l2.26,-2.26l-2.26,-2.26l-2.26,2.26l-2.26,-2.26l-2.26,2.26l2.26,2.26l-2.26,2.26l2.26,2.26Z" style="opacity: 1; stroke-width: 0px; fill: rgb(129, 114, 179); fill-opacity: 1;"/><path class="point" transform="translate(187.2,323.72)" d="M0,2.26l2.26,2.26l2.26,-2.26l-2.26,-2.26l2.26,-2.26l-2.26,-2.26l-2.26,2.26l-2.26,-2.26l-2.26,2.26l2.26,2.26l-2.26,2.26l2.26,2.26Z" style="opacity: 1; stroke-width: 0px; fill: rgb(129, 114, 179); fill-opacity: 1;"/><path class="point" transform="translate(232.15,339.63)" d="M0,2.26l2.26,2.26l2.26,-2.26l-2.26,-2.26l2.26,-2.26l-2.26,-2.26l-2.26,2.26l-2.26,-2.26l-2.26,2.26l2.26,2.26l-2.26,2.26l2.26,2.26Z" style="opacity: 1; stroke-width: 0px; fill: rgb(129, 114, 179); fill-opacity: 1;"/><path class="point" transform="translate(277.09,341.97)" d="M0,2.26l2.26,2.26l2.26,-2.26l-2.26,-2.26l2.26,-2.26l-2.26,-2.26l-2.26,2.26l-2.26,-2.26l-2.26,2.26l2.26,2.26l-2.26,2.26l2.26,2.26Z" style="opacity: 1; stroke-width: 0px; fill: rgb(129, 114, 179); fill-opacity: 1;"/><path class="point" transform="translate(322.03,346.03)" d="M0,2.26l2.26,2.26l2.26,-2.26l-2.26,-2.26l2.26,-2.26l-2.26,-2.26l-2.26,2.26l-2.26,-2.26l-2.26,2.26l2.26,2.26l-2.26,2.26l2.26,2.26Z" style="opacity: 1; stroke-width: 0px; fill: rgb(129, 114, 179); fill-opacity: 1;"/><path class="point" transform="translate(366.98,358.31)" d="M0,2.26l2.26,2.26l2.26,-2.26l-2.26,-2.26l2.26,-2.26l-2.26,-2.26l-2.26,2.26l-2.26,-2.26l-2.26,2.26l2.26,2.26l-2.26,2.26l2.26,2.26Z" style="opacity: 1; stroke-width: 0px; fill: rgb(129, 114, 179); fill-opacity: 1;"/><path class="point" transform="translate(411.92,361.23)" d="M0,2.26l2.26,2.26l2.26,-2.26l-2.26,-2.26l2.26,-2.26l-2.26,-2.26l-2.26,2.26l-2.26,-2.26l-2.26,2.26l2.26,2.26l-2.26,2.26l2.26,2.26Z" style="opacity: 1; stroke-width: 0px; fill: rgb(129, 114, 179); fill-opacity: 1;"/><path class="point" transform="translate(456.86,368.35)" d="M0,2.26l2.26,2.26l2.26,-2.26l-2.26,-2.26l2.26,-2.26l-2.26,-2.26l-2.26,2.26l-2.26,-2.26l-2.26,2.26l2.26,2.26l-2.26,2.26l2.26,2.26Z" style="opacity: 1; stroke-width: 0px; fill: rgb(129, 114, 179); fill-opacity: 1;"/></g><g class="text"/></g><g class="trace scatter trace6f6f1e" style="stroke-miterlimit: 2; opacity: 1;"><g class="fills"/><g class="errorbars"/><g class="lines"><path class="js-line" d="M29.9,134.27L41.14,170.15L52.37,193.46L63.61,202.55L74.84,224.05L86.08,222.23L97.32,228.22L108.55,274.95L119.79,279.24L131.02,275.81L142.26,290.38L153.49,284.4L164.73,299.01L175.97,301.84L187.2,291.69L198.44,301.36L209.67,302.02L220.91,298.89L232.15,308.65L243.38,307.81L254.62,303.09L265.85,310.97L277.09,301.51L288.33,317.56L299.56,318.95L310.8,308.31L322.03,312.98L333.27,327.23L344.51,325.23L355.74,322.78L366.98,331.24L378.21,318.28L389.45,323.68L400.68,323.91L411.92,322L423.16,329.17L434.39,329.62L445.63,327.28L456.86,326.39L468.1,329.66" style="vector-effect: non-scaling-stroke; fill: none; stroke: rgb(147, 120, 96); stroke-opacity: 1; stroke-width: 2px; opacity: 1;"/></g><g class="points"><path class="point" transform="translate(41.14,170.15)" d="M-4.62,2H4.62L0,-4Z" style="opacity: 1; stroke-width: 0px; fill: rgb(147, 120, 96); fill-opacity: 1;"/><path class="point" transform="translate(86.08,222.23)" d="M-4.62,2H4.62L0,-4Z" style="opacity: 1; stroke-width: 0px; fill: rgb(147, 120, 96); fill-opacity: 1;"/><path class="point" transform="translate(131.02,275.81)" d="M-4.62,2H4.62L0,-4Z" style="opacity: 1; stroke-width: 0px; fill: rgb(147, 120, 96); fill-opacity: 1;"/><path class="point" transform="translate(175.97,301.84)" d="M-4.62,2H4.62L0,-4Z" style="opacity: 1; stroke-width: 0px; fill: rgb(147, 120, 96); fill-opacity: 1;"/><path class="point" transform="translate(220.91,298.89)" d="M-4.62,2H4.62L0,-4Z" style="opacity: 1; stroke-width: 0px; fill: rgb(147, 120, 96); fill-opacity: 1;"/><path class="point" transform="translate(265.85,310.97)" d="M-4.62,2H4.62L0,-4Z" style="opacity: 1; stroke-width: 0px; fill: rgb(147, 120, 96); fill-opacity: 1;"/><path class="point" transform="translate(310.8,308.31)" d="M-4.62,2H4.62L0,-4Z" style="opacity: 1; stroke-width: 0px; fill: rgb(147, 120, 96); fill-opacity: 1;"/><path class="point" transform="translate(355.74,322.78)" d="M-4.62,2H4.62L0,-4Z" style="opacity: 1; stroke-width: 0px; fill: rgb(147, 120, 96); fill-opacity: 1;"/><path class="point" transform="translate(400.68,323.91)" d="M-4.62,2H4.62L0,-4Z" style="opacity: 1; stroke-width: 0px; fill: rgb(147, 120, 96); fill-opacity: 1;"/><path class="point" transform="translate(445.63,327.28)" d="M-4.62,2H4.62L0,-4Z" style="opacity: 1; stroke-width: 0px; fill: rgb(147, 120, 96); fill-opacity: 1;"/></g><g class="text"/></g><g class="trace scatter trace1e7c1e" style="stroke-miterlimit: 2; opacity: 1;"><g class="fills"/><g class="errorbars"/><g class="lines"><path class="js-line" d="M29.9,139.25L41.14,198.3L52.37,234.69L74.84,259.83L86.08,275.6L97.32,275.46L108.55,279.35L119.79,290.57L131.02,291.51L142.26,297.52L153.49,296.09L164.73,304.21L175.97,298.73L187.2,304.37L198.44,294.53L209.67,305.7L220.91,310.2L232.15,319.78L243.38,308.3L254.62,319.14L265.85,306.76L277.09,319.24L288.33,316.75L310.8,319.61L322.03,320.91L333.27,324.3L344.51,331.88" style="vector-effect: non-scaling-stroke; fill: none; stroke: rgb(218, 139, 195); stroke-opacity: 1; stroke-width: 2px; opacity: 1;"/></g><g class="points"><path class="point" transform="translate(52.37,234.69)" d="M-4.62,-2H4.62L0,4Z" style="opacity: 1; stroke-width: 0px; fill: rgb(218, 139, 195); fill-opacity: 1;"/><path class="point" transform="translate(86.08,275.6)" d="M-4.62,-2H4.62L0,4Z" style="opacity: 1; stroke-width: 0px; fill: rgb(218, 139, 195); fill-opacity: 1;"/><path class="point" transform="translate(119.79,290.57)" d="M-4.62,-2H4.62L0,4Z" style="opacity: 1; stroke-width: 0px; fill: rgb(218, 139, 195); fill-opacity: 1;"/><path class="point" transform="translate(153.49,296.09)" d="M-4.62,-2H4.62L0,4Z" style="opacity: 1; stroke-width: 0px; fill: rgb(218, 139, 195); fill-opacity: 1;"/><path class="point" transform="translate(187.2,304.37)" d="M-4.62,-2H4.62L0,4Z" style="opacity: 1; stroke-width: 0px; fill: rgb(218, 139, 195); fill-opacity: 1;"/><path class="point" transform="translate(220.91,310.2)" d="M-4.62,-2H4.62L0,4Z" style="opacity: 1; stroke-width: 0px; fill: rgb(218, 139, 195); fill-opacity: 1;"/><path class="point" transform="translate(254.62,319.14)" d="M-4.62,-2H4.62L0,4Z" style="opacity: 1; stroke-width: 0px; fill: rgb(218, 139, 195); fill-opacity: 1;"/><path class="point" transform="translate(288.33,316.75)" d="M-4.62,-2H4.62L0,4Z" style="opacity: 1; stroke-width: 0px; fill: rgb(218, 139, 195); fill-opacity: 1;"/><path class="point" transform="translate(322.03,320.91)" d="M-4.62,-2H4.62L0,4Z" style="opacity: 1; stroke-width: 0px; fill: rgb(218, 139, 195); fill-opacity: 1;"/></g><g class="text"/></g><g class="trace scatter trace3c263c" style="stroke-miterlimit: 2; opacity: 1;"><g class="fills"/><g class="errorbars"/><g class="lines"><path class="js-line" d="M29.9,125.78L41.14,201.18L52.37,226.69L63.61,233.91L74.84,258.87L86.08,271.4L97.32,277.87L108.55,284.2L119.79,289.62L131.02,285.49L142.26,298.31L153.49,299.43L164.73,305.24L175.97,306.29L187.2,313.61L198.44,317.91L209.67,306.37L220.91,315.72L232.15,317.89L243.38,327.49L254.62,322.39L265.85,319.54L277.09,323.22L288.33,325.15L299.56,320.97L310.8,330.4L322.03,336.68L333.27,325.71L344.51,334.08L355.74,319.48L366.98,333.16L378.21,328.93L389.45,341.87L400.68,339.39L411.92,345.47L423.16,337.69L434.39,340L445.63,337.36L456.86,337.13L468.1,339.89" style="vector-effect: non-scaling-stroke; fill: none; stroke: rgb(140, 140, 140); stroke-opacity: 1; stroke-width: 2px; opacity: 1;"/></g><g class="points"><path class="point" transform="translate(52.37,226.69)" d="M2,-4.62V4.62L-4,0Z" style="opacity: 1; stroke-width: 0px; fill: rgb(140, 140, 140); fill-opacity: 1;"/><path class="point" transform="translate(97.32,277.87)" d="M2,-4.62V4.62L-4,0Z" style="opacity: 1; stroke-width: 0px; fill: rgb(140, 140, 140); fill-opacity: 1;"/><path class="point" transform="translate(142.26,298.31)" d="M2,-4.62V4.62L-4,0Z" style="opacity: 1; stroke-width: 0px; fill: rgb(140, 140, 140); fill-opacity: 1;"/><path class="point" transform="translate(187.2,313.61)" d="M2,-4.62V4.62L-4,0Z" style="opacity: 1; stroke-width: 0px; fill: rgb(140, 140, 140); fill-opacity: 1;"/><path class="point" transform="translate(232.15,317.89)" d="M2,-4.62V4.62L-4,0Z" style="opacity: 1; stroke-width: 0px; fill: rgb(140, 140, 140); fill-opacity: 1;"/><path class="point" transform="translate(277.09,323.22)" d="M2,-4.62V4.62L-4,0Z" style="opacity: 1; stroke-width: 0px; fill: rgb(140, 140, 140); fill-opacity: 1;"/><path class="point" transform="translate(322.03,336.68)" d="M2,-4.62V4.62L-4,0Z" style="opacity: 1; stroke-width: 0px; fill: rgb(140, 140, 140); fill-opacity: 1;"/><path class="point" transform="translate(366.98,333.16)" d="M2,-4.62V4.62L-4,0Z" style="opacity: 1; stroke-width: 0px; fill: rgb(140, 140, 140); fill-opacity: 1;"/><path class="point" transform="translate(411.92,345.47)" d="M2,-4.62V4.62L-4,0Z" style="opacity: 1; stroke-width: 0px; fill: rgb(140, 140, 140); fill-opacity: 1;"/><path class="point" transform="translate(456.86,337.13)" d="M2,-4.62V4.62L-4,0Z" style="opacity: 1; stroke-width: 0px; fill: rgb(140, 140, 140); fill-opacity: 1;"/></g><g class="text"/></g><g class="trace scatter traced012b1" style="stroke-miterlimit: 2; opacity: 1;"><g class="fills"/><g class="errorbars"/><g class="lines"><path class="js-line" d="M29.9,91.5L41.14,172.8L52.37,207.35L63.61,234.49L74.84,256.64L86.08,268.57L97.32,275.3L108.55,282.21L119.79,287.46L131.02,297.91L142.26,310.01L153.49,307.48L164.73,305.77L175.97,318.61L187.2,321.15L198.44,317.52L209.67,327.5L220.91,334.95L232.15,332.14L243.38,338.66L254.62,333.8L265.85,341.22L277.09,343.64L288.33,343.08L299.56,340.81L310.8,338.57L322.03,341.22L333.27,345.28L344.51,337.5L355.74,350.32L366.98,352.77L378.21,349.82L389.45,353.17L400.68,359.81L411.92,362.07L423.16,356.5L434.39,358.12L445.63,359.38L456.86,355.63L468.1,360.6" style="vector-effect: non-scaling-stroke; fill: none; stroke: rgb(204, 185, 116); stroke-opacity: 1; stroke-width: 2px; opacity: 1;"/></g><g class="points"><path class="point" transform="translate(29.9,91.5)" d="M-2,-4.62V4.62L4,0Z" style="opacity: 1; stroke-width: 0px; fill: rgb(204, 185, 116); fill-opacity: 1;"/><path class="point" transform="translate(74.84,256.64)" d="M-2,-4.62V4.62L4,0Z" style="opacity: 1; stroke-width: 0px; fill: rgb(204, 185, 116); fill-opacity: 1;"/><path class="point" transform="translate(119.79,287.46)" d="M-2,-4.62V4.62L4,0Z" style="opacity: 1; stroke-width: 0px; fill: rgb(204, 185, 116); fill-opacity: 1;"/><path class="point" transform="translate(164.73,305.77)" d="M-2,-4.62V4.62L4,0Z" style="opacity: 1; stroke-width: 0px; fill: rgb(204, 185, 116); fill-opacity: 1;"/><path class="point" transform="translate(209.67,327.5)" d="M-2,-4.62V4.62L4,0Z" style="opacity: 1; stroke-width: 0px; fill: rgb(204, 185, 116); fill-opacity: 1;"/><path class="point" transform="translate(254.62,333.8)" d="M-2,-4.62V4.62L4,0Z" style="opacity: 1; stroke-width: 0px; fill: rgb(204, 185, 116); fill-opacity: 1;"/><path class="point" transform="translate(299.56,340.81)" d="M-2,-4.62V4.62L4,0Z" style="opacity: 1; stroke-width: 0px; fill: rgb(204, 185, 116); fill-opacity: 1;"/><path class="point" transform="translate(344.51,337.5)" d="M-2,-4.62V4.62L4,0Z" style="opacity: 1; stroke-width: 0px; fill: rgb(204, 185, 116); fill-opacity: 1;"/><path class="point" transform="translate(389.45,353.17)" d="M-2,-4.62V4.62L4,0Z" style="opacity: 1; stroke-width: 0px; fill: rgb(204, 185, 116); fill-opacity: 1;"/><path class="point" transform="translate(434.39,358.12)" d="M-2,-4.62V4.62L4,0Z" style="opacity: 1; stroke-width: 0px; fill: rgb(204, 185, 116); fill-opacity: 1;"/></g><g class="text"/></g><g class="trace scatter trace94fafd" style="stroke-miterlimit: 2; opacity: 1;"><g class="fills"/><g class="errorbars"/><g class="lines"><path class="js-line" d="M29.9,24.65L41.14,105.73L52.37,175.26L63.61,202.64L74.84,220.63L86.08,242.49L97.32,258.91L108.55,270.68L119.79,270.4L131.02,274.95L142.26,284.05L153.49,288.95L164.73,289.54L175.97,290.17L187.2,294.1L198.44,295.58L209.67,292.92L220.91,302.22L232.15,302.72L243.38,311.62L254.62,311.37L265.85,310.84L277.09,312.17L288.33,316.14L299.56,314.56L310.8,312.04L322.03,320.37L333.27,319.96L344.51,321.65L355.74,318.79L366.98,321.94L378.21,326.99L389.45,327.1L400.68,327.52L411.92,326.65L423.16,326.76L434.39,330.17L445.63,329.89L456.86,331.31L468.1,332.95" style="vector-effect: non-scaling-stroke; fill: none; stroke: rgb(100, 181, 205); stroke-opacity: 1; stroke-width: 2px; opacity: 1;"/></g><g class="points"><path class="point" transform="translate(52.37,175.26)" d="M-4.8,-2.4H2.4V4.8Z" style="opacity: 1; stroke-width: 0px; fill: rgb(100, 181, 205); fill-opacity: 1;"/><path class="point" transform="translate(97.32,258.91)" d="M-4.8,-2.4H2.4V4.8Z" style="opacity: 1; stroke-width: 0px; fill: rgb(100, 181, 205); fill-opacity: 1;"/><path class="point" transform="translate(142.26,284.05)" d="M-4.8,-2.4H2.4V4.8Z" style="opacity: 1; stroke-width: 0px; fill: rgb(100, 181, 205); fill-opacity: 1;"/><path class="point" transform="translate(187.2,294.1)" d="M-4.8,-2.4H2.4V4.8Z" style="opacity: 1; stroke-width: 0px; fill: rgb(100, 181, 205); fill-opacity: 1;"/><path class="point" transform="translate(232.15,302.72)" d="M-4.8,-2.4H2.4V4.8Z" style="opacity: 1; stroke-width: 0px; fill: rgb(100, 181, 205); fill-opacity: 1;"/><path class="point" transform="translate(277.09,312.17)" d="M-4.8,-2.4H2.4V4.8Z" style="opacity: 1; stroke-width: 0px; fill: rgb(100, 181, 205); fill-opacity: 1;"/><path class="point" transform="translate(322.03,320.37)" d="M-4.8,-2.4H2.4V4.8Z" style="opacity: 1; stroke-width: 0px; fill: rgb(100, 181, 205); fill-opacity: 1;"/><path class="point" transform="translate(366.98,321.94)" d="M-4.8,-2.4H2.4V4.8Z" style="opacity: 1; stroke-width: 0px; fill: rgb(100, 181, 205); fill-opacity: 1;"/><path class="point" transform="translate(411.92,326.65)" d="M-4.8,-2.4H2.4V4.8Z" style="opacity: 1; stroke-width: 0px; fill: rgb(100, 181, 205); fill-opacity: 1;"/><path class="point" transform="translate(456.86,331.31)" d="M-4.8,-2.4H2.4V4.8Z" style="opacity: 1; stroke-width: 0px; fill: rgb(100, 181, 205); fill-opacity: 1;"/></g><g class="text"/></g></g></g><g class="overplot"/><path class="xlines-above crisp" d="M84,443.5H583" style="fill: none; stroke-width: 1px; stroke: rgb(255, 255, 255); stroke-opacity: 1;"/><path class="ylines-above crisp" d="M84.5,50V443" style="fill: none; stroke-width: 1px; stroke: rgb(255, 255, 255); stroke-opacity: 1;"/><g class="overlines-above"/><g class="xaxislayer-above"><g class="xtick"><text text-anchor="middle" x="0" y="465.6" transform="translate(114.9,0)" style="font-family: 'Times New Roman'; font-size: 18px; fill: rgb(36, 36, 36); fill-opacity: 1; white-space: pre;">0</text></g><g class="xtick"><text text-anchor="middle" x="0" y="465.6" transform="translate(227.26,0)" style="font-family: 'Times New Roman'; font-size: 18px; fill: rgb(36, 36, 36); fill-opacity: 1; white-space: pre;">10</text></g><g class="xtick"><text text-anchor="middle" x="0" y="465.6" transform="translate(339.62,0)" style="font-family: 'Times New Roman'; font-size: 18px; fill: rgb(36, 36, 36); fill-opacity: 1; white-space: pre;">20</text></g><g class="xtick"><text text-anchor="middle" x="0" y="465.6" transform="translate(451.98,0)" style="font-family: 'Times New Roman'; font-size: 18px; fill: rgb(36, 36, 36); fill-opacity: 1; white-space: pre;">30</text></g><g class="xtick"><text text-anchor="middle" x="0" y="465.6" transform="translate(564.3399999999999,0)" style="font-family: 'Times New Roman'; font-size: 18px; fill: rgb(36, 36, 36); fill-opacity: 1; white-space: pre;">40</text></g></g><g class="yaxislayer-above"><g class="ytick"><text text-anchor="end" x="80.4" y="6.3" transform="translate(0,388.7)" style="font-family: 'Times New Roman'; font-size: 18px; fill: rgb(36, 36, 36); fill-opacity: 1; white-space: pre;">0.0008</text></g><g class="ytick"><text text-anchor="end" x="80.4" y="6.3" transform="translate(0,338.01)" style="font-family: 'Times New Roman'; font-size: 18px; fill: rgb(36, 36, 36); fill-opacity: 1; white-space: pre;">0.001</text></g><g class="ytick"><text text-anchor="end" x="80.4" y="6.3" transform="translate(0,296.59000000000003)" style="font-family: 'Times New Roman'; font-size: 18px; fill: rgb(36, 36, 36); fill-opacity: 1; white-space: pre;">0.0012</text></g><g class="ytick"><text text-anchor="end" x="80.4" y="6.3" transform="translate(0,261.57)" style="font-family: 'Times New Roman'; font-size: 18px; fill: rgb(36, 36, 36); fill-opacity: 1; white-space: pre;">0.0014</text></g><g class="ytick"><text text-anchor="end" x="80.4" y="6.3" transform="translate(0,231.24)" style="font-family: 'Times New Roman'; font-size: 18px; fill: rgb(36, 36, 36); fill-opacity: 1; white-space: pre;">0.0016</text></g><g class="ytick"><text text-anchor="end" x="80.4" y="6.3" transform="translate(0,204.48)" style="font-family: 'Times New Roman'; font-size: 18px; fill: rgb(36, 36, 36); fill-opacity: 1; white-space: pre;">0.0018</text></g><g class="ytick"><text text-anchor="end" x="80.4" y="6.3" transform="translate(0,180.55)" style="font-family: 'Times New Roman'; font-size: 18px; fill: rgb(36, 36, 36); fill-opacity: 1; white-space: pre;">0.002</text></g><g class="ytick"><text text-anchor="end" x="80.4" y="6.3" transform="translate(0,158.89)" style="font-family: 'Times New Roman'; font-size: 18px; fill: rgb(36, 36, 36); fill-opacity: 1; white-space: pre;">0.0022</text></g><g class="ytick"><text text-anchor="end" x="80.4" y="6.3" transform="translate(0,139.13)" style="font-family: 'Times New Roman'; font-size: 18px; fill: rgb(36, 36, 36); fill-opacity: 1; white-space: pre;">0.0024</text></g><g class="ytick"><text text-anchor="end" x="80.4" y="6.3" transform="translate(0,120.94)" style="font-family: 'Times New Roman'; font-size: 18px; fill: rgb(36, 36, 36); fill-opacity: 1; white-space: pre;">0.0026</text></g><g class="ytick"><text text-anchor="end" x="80.4" y="6.3" transform="translate(0,104.11)" style="font-family: 'Times New Roman'; font-size: 18px; fill: rgb(36, 36, 36); fill-opacity: 1; white-space: pre;">0.0028</text></g><g class="ytick"><text text-anchor="end" x="80.4" y="6.3" transform="translate(0,88.44)" style="font-family: 'Times New Roman'; font-size: 18px; fill: rgb(36, 36, 36); fill-opacity: 1; white-space: pre;">0.003</text></g><g class="ytick"><text text-anchor="end" x="80.4" y="6.3" transform="translate(0,73.78)" style="font-family: 'Times New Roman'; font-size: 18px; fill: rgb(36, 36, 36); fill-opacity: 1; white-space: pre;">0.0032</text></g><g class="ytick"><text text-anchor="end" x="80.4" y="6.3" transform="translate(0,60)" style="font-family: 'Times New Roman'; font-size: 18px; fill: rgb(36, 36, 36); fill-opacity: 1; white-space: pre;">0.0034</text></g></g><g class="overaxes-above"/></g></g><g class="polarlayer"/><g class="ternarylayer"/><g class="geolayer"/><g class="funnelarealayer"/><g class="pielayer"/><g class="treemaplayer"/><g class="sunburstlayer"/><g class="glimages"/><defs id="topdefs-c82477"><g class="clips"/><clipPath id="legendc82477"><rect width="107" height="274" x="0" y="0"/></clipPath></defs><g class="layer-above"><g class="imagelayer"/><g class="shapelayer"/></g><g class="infolayer"><g class="legend" pointer-events="all" transform="translate(592.96, 50)"><rect class="bg" shape-rendering="crispEdges" style="stroke: rgb(68, 68, 68); stroke-opacity: 1; fill: rgb(255, 255, 255); fill-opacity: 1; stroke-width: 0px;" width="107" height="274" x="0" y="0"/><g class="scrollbox" transform="translate(0, 0)" clip-path="url('#legendc82477')"><g class="groups"><g class="traces" transform="translate(0, 18.200000000000003)" style="opacity: 1;"><text class="legendtext user-select-none" text-anchor="start" x="40" y="7.0200000000000005" style="font-family: 'Times New Roman'; font-size: 18px; fill: rgb(36, 36, 36); fill-opacity: 1; white-space: pre;">Trial411</text><g class="layers" style="opacity: 1;"><g class="legendfill"/><g class="legendlines"><path class="js-line" d="M5,0h30" style="fill: none; stroke: rgb(76, 114, 176); stroke-opacity: 1; stroke-width: 2px;"/></g><g class="legendsymbols"><g class="legendpoints"><path class="scatterpts" transform="translate(20,0)" d="M4,0A4,4 0 1,1 0,-4A4,4 0 0,1 4,0Z" style="opacity: 1; stroke-width: 0px; fill: rgb(76, 114, 176); fill-opacity: 1;"/></g></g></g><rect class="legendtoggle" pointer-events="all" x="0" y="-13.200000000000001" width="101.359375" height="26.400000000000002" style="cursor: pointer; fill: rgb(0, 0, 0); fill-opacity: 0;"/></g><g class="traces" transform="translate(0, 44.6)" style="opacity: 1;"><text class="legendtext user-select-none" text-anchor="start" x="40" y="7.0200000000000005" style="font-family: 'Times New Roman'; font-size: 18px; fill: rgb(36, 36, 36); fill-opacity: 1; white-space: pre;">Trial436</text><g class="layers" style="opacity: 1;"><g class="legendfill"/><g class="legendlines"><path class="js-line" d="M5,0h30" style="fill: none; stroke: rgb(221, 132, 82); stroke-opacity: 1; stroke-width: 2px;"/></g><g class="legendsymbols"><g class="legendpoints"><path class="scatterpts" transform="translate(20,0)" d="M4,4H-4V-4H4Z" style="opacity: 1; stroke-width: 0px; fill: rgb(221, 132, 82); fill-opacity: 1;"/></g></g></g><rect class="legendtoggle" pointer-events="all" x="0" y="-13.200000000000001" width="101.359375" height="26.400000000000002" style="cursor: pointer; fill: rgb(0, 0, 0); fill-opacity: 0;"/></g><g class="traces" transform="translate(0, 71)" style="opacity: 1;"><text class="legendtext user-select-none" text-anchor="start" x="40" y="7.0200000000000005" style="font-family: 'Times New Roman'; font-size: 18px; fill: rgb(36, 36, 36); fill-opacity: 1; white-space: pre;">Trial440</text><g class="layers" style="opacity: 1;"><g class="legendfill"/><g class="legendlines"><path class="js-line" d="M5,0h30" style="fill: none; stroke: rgb(85, 168, 104); stroke-opacity: 1; stroke-width: 2px;"/></g><g class="legendsymbols"><g class="legendpoints"><path class="scatterpts" transform="translate(20,0)" d="M5.2,0L0,5.2L-5.2,0L0,-5.2Z" style="opacity: 1; stroke-width: 0px; fill: rgb(85, 168, 104); fill-opacity: 1;"/></g></g></g><rect class="legendtoggle" pointer-events="all" x="0" y="-13.200000000000001" width="101.359375" height="26.400000000000002" style="cursor: pointer; fill: rgb(0, 0, 0); fill-opacity: 0;"/></g><g class="traces" transform="translate(0, 97.4)" style="opacity: 1;"><text class="legendtext user-select-none" text-anchor="start" x="40" y="7.0200000000000005" style="font-family: 'Times New Roman'; font-size: 18px; fill: rgb(36, 36, 36); fill-opacity: 1; white-space: pre;">Trial466</text><g class="layers" style="opacity: 1;"><g class="legendfill"/><g class="legendlines"><path class="js-line" d="M5,0h30" style="fill: none; stroke: rgb(196, 78, 82); stroke-opacity: 1; stroke-width: 2px;"/></g><g class="legendsymbols"><g class="legendpoints"><path class="scatterpts" transform="translate(20,0)" d="M4.8,1.6H1.6V4.8H-1.6V1.6H-4.8V-1.6H-1.6V-4.8H1.6V-1.6H4.8Z" style="opacity: 1; stroke-width: 0px; fill: rgb(196, 78, 82); fill-opacity: 1;"/></g></g></g><rect class="legendtoggle" pointer-events="all" x="0" y="-13.200000000000001" width="101.359375" height="26.400000000000002" style="cursor: pointer; fill: rgb(0, 0, 0); fill-opacity: 0;"/></g><g class="traces" transform="translate(0, 123.80000000000001)" style="opacity: 1;"><text class="legendtext user-select-none" text-anchor="start" x="40" y="7.0200000000000005" style="font-family: 'Times New Roman'; font-size: 18px; fill: rgb(36, 36, 36); fill-opacity: 1; white-space: pre;">Trial513</text><g class="layers" style="opacity: 1;"><g class="legendfill"/><g class="legendlines"><path class="js-line" d="M5,0h30" style="fill: none; stroke: rgb(129, 114, 179); stroke-opacity: 1; stroke-width: 2px;"/></g><g class="legendsymbols"><g class="legendpoints"><path class="scatterpts" transform="translate(20,0)" d="M0,2.26l2.26,2.26l2.26,-2.26l-2.26,-2.26l2.26,-2.26l-2.26,-2.26l-2.26,2.26l-2.26,-2.26l-2.26,2.26l2.26,2.26l-2.26,2.26l2.26,2.26Z" style="opacity: 1; stroke-width: 0px; fill: rgb(129, 114, 179); fill-opacity: 1;"/></g></g></g><rect class="legendtoggle" pointer-events="all" x="0" y="-13.200000000000001" width="101.359375" height="26.400000000000002" style="cursor: pointer; fill: rgb(0, 0, 0); fill-opacity: 0;"/></g><g class="traces" transform="translate(0, 150.2)" style="opacity: 1;"><text class="legendtext user-select-none" text-anchor="start" x="40" y="7.0200000000000005" style="font-family: 'Times New Roman'; font-size: 18px; fill: rgb(36, 36, 36); fill-opacity: 1; white-space: pre;">Trial524</text><g class="layers" style="opacity: 1;"><g class="legendfill"/><g class="legendlines"><path class="js-line" d="M5,0h30" style="fill: none; stroke: rgb(147, 120, 96); stroke-opacity: 1; stroke-width: 2px;"/></g><g class="legendsymbols"><g class="legendpoints"><path class="scatterpts" transform="translate(20,0)" d="M-4.62,2H4.62L0,-4Z" style="opacity: 1; stroke-width: 0px; fill: rgb(147, 120, 96); fill-opacity: 1;"/></g></g></g><rect class="legendtoggle" pointer-events="all" x="0" y="-13.200000000000001" width="101.359375" height="26.400000000000002" style="cursor: pointer; fill: rgb(0, 0, 0); fill-opacity: 0;"/></g><g class="traces" transform="translate(0, 176.6)" style="opacity: 1;"><text class="legendtext user-select-none" text-anchor="start" x="40" y="7.0200000000000005" style="font-family: 'Times New Roman'; font-size: 18px; fill: rgb(36, 36, 36); fill-opacity: 1; white-space: pre;">Trial525</text><g class="layers" style="opacity: 1;"><g class="legendfill"/><g class="legendlines"><path class="js-line" d="M5,0h30" style="fill: none; stroke: rgb(218, 139, 195); stroke-opacity: 1; stroke-width: 2px;"/></g><g class="legendsymbols"><g class="legendpoints"><path class="scatterpts" transform="translate(20,0)" d="M-4.62,-2H4.62L0,4Z" style="opacity: 1; stroke-width: 0px; fill: rgb(218, 139, 195); fill-opacity: 1;"/></g></g></g><rect class="legendtoggle" pointer-events="all" x="0" y="-13.200000000000001" width="101.359375" height="26.400000000000002" style="cursor: pointer; fill: rgb(0, 0, 0); fill-opacity: 0;"/></g><g class="traces" transform="translate(0, 203)" style="opacity: 1;"><text class="legendtext user-select-none" text-anchor="start" x="40" y="7.0200000000000005" style="font-family: 'Times New Roman'; font-size: 18px; fill: rgb(36, 36, 36); fill-opacity: 1; white-space: pre;">Trial539</text><g class="layers" style="opacity: 1;"><g class="legendfill"/><g class="legendlines"><path class="js-line" d="M5,0h30" style="fill: none; stroke: rgb(140, 140, 140); stroke-opacity: 1; stroke-width: 2px;"/></g><g class="legendsymbols"><g class="legendpoints"><path class="scatterpts" transform="translate(20,0)" d="M2,-4.62V4.62L-4,0Z" style="opacity: 1; stroke-width: 0px; fill: rgb(140, 140, 140); fill-opacity: 1;"/></g></g></g><rect class="legendtoggle" pointer-events="all" x="0" y="-13.200000000000001" width="101.359375" height="26.400000000000002" style="cursor: pointer; fill: rgb(0, 0, 0); fill-opacity: 0;"/></g><g class="traces" transform="translate(0, 229.4)" style="opacity: 1;"><text class="legendtext user-select-none" text-anchor="start" x="40" y="7.0200000000000005" style="font-family: 'Times New Roman'; font-size: 18px; fill: rgb(36, 36, 36); fill-opacity: 1; white-space: pre;">Trial544</text><g class="layers" style="opacity: 1;"><g class="legendfill"/><g class="legendlines"><path class="js-line" d="M5,0h30" style="fill: none; stroke: rgb(204, 185, 116); stroke-opacity: 1; stroke-width: 2px;"/></g><g class="legendsymbols"><g class="legendpoints"><path class="scatterpts" transform="translate(20,0)" d="M-2,-4.62V4.62L4,0Z" style="opacity: 1; stroke-width: 0px; fill: rgb(204, 185, 116); fill-opacity: 1;"/></g></g></g><rect class="legendtoggle" pointer-events="all" x="0" y="-13.200000000000001" width="101.359375" height="26.400000000000002" style="cursor: pointer; fill: rgb(0, 0, 0); fill-opacity: 0;"/></g><g class="traces" transform="translate(0, 255.8)" style="opacity: 1;"><text class="legendtext user-select-none" text-anchor="start" x="40" y="7.0200000000000005" style="font-family: 'Times New Roman'; font-size: 18px; fill: rgb(36, 36, 36); fill-opacity: 1; white-space: pre;">Trial545</text><g class="layers" style="opacity: 1;"><g class="legendfill"/><g class="legendlines"><path class="js-line" d="M5,0h30" style="fill: none; stroke: rgb(100, 181, 205); stroke-opacity: 1; stroke-width: 2px;"/></g><g class="legendsymbols"><g class="legendpoints"><path class="scatterpts" transform="translate(20,0)" d="M-4.8,-2.4H2.4V4.8Z" style="opacity: 1; stroke-width: 0px; fill: rgb(100, 181, 205); fill-opacity: 1;"/></g></g></g><rect class="legendtoggle" pointer-events="all" x="0" y="-13.200000000000001" width="101.359375" height="26.400000000000002" style="cursor: pointer; fill: rgb(0, 0, 0); fill-opacity: 0;"/></g></g></g><rect class="scrollbar" rx="20" ry="3" width="0" height="0" style="fill: rgb(128, 139, 164); fill-opacity: 1;" x="0" y="0"/></g><g class="g-gtitle"><text class="gtitle" x="350" y="10" text-anchor="middle" dy="0.7em" style="font-family: 'Times New Roman'; font-size: 30px; fill: rgb(36, 36, 36); opacity: 1; font-weight: normal; white-space: pre;">Loss Per Training Step</text></g><g class="g-xtitle" transform="translate(0,-5.009374999999977)"><text class="xtitle" x="334" y="500.009375" text-anchor="middle" style="font-family: 'Times New Roman'; font-size: 22px; fill: rgb(36, 36, 36); opacity: 1; font-weight: normal; white-space: pre;">Step</text></g><g class="g-ytitle" transform="translate(19.509765625,0)"><text class="ytitle" transform="rotate(-90,0.4906249999999943,246.5)" x="0.4906249999999943" y="246.5" text-anchor="middle" style="font-family: 'Times New Roman'; font-size: 22px; fill: rgb(36, 36, 36); opacity: 1; font-weight: normal; white-space: pre;">Intermediate Value</text></g></g></svg>